{
  "asset": {
    "version": "2.0",
    "generator": "THREE.GLTFExporter"
  },
  "scenes": [
    {
      "nodes": [
        0
      ]
    }
  ],
  "scene": 0,
  "nodes": [
    {
      "children": [
        21
      ],
      "matrix": [
        0.01,
        0,
        0,
        0,
        0,
        0.01,
        0,
        0,
        0,
        0,
        0.01,
        0,
        0,
        0,
        0,
        1
      ]
    },
    {
      "matrix": [
        0.8089138625194767,
        -1.3845963722780574e-8,
        0.5879271749322537,
        0,
        0.21730389967888125,
        0.9291868968585432,
        -0.2989828187216479,
        0,
        -0.5462942231144055,
        0.3696102145590553,
        0.7516321647491127,
        0,
        -2548.01763857525,
        1524.2927130978921,
        3286.824929269257,
        1
      ],
      "name": "Camera",
      "camera": 0
    },
    {
      "matrix": [
        0.9626436847461446,
        0.1822064175899462,
        -0.20029467693227276,
        0,
        -0.267383431605825,
        0.5230231288004338,
        -0.8092916082862209,
        0,
        -0.03897711269444176,
        0.7600327934003027,
        0.5040662223167554,
        0,
        -482.575382351463,
        517.6855008956855,
        -983.7653500516718,
        1
      ],
      "name": "Spot Light 2",
      "extensions": {
        "KHR_lights_punctual": {
          "light": 0
        }
      }
    },
    {
      "matrix": [
        0.8959004597693913,
        -0.04474193889264266,
        0.44199606908786004,
        0,
        0.32243313111751204,
        0.749911016411517,
        -0.5776420547557136,
        0,
        -0.278971483118954,
        0.6024872156447587,
        0.6264470332195565,
        0,
        491.2421128009608,
        721.8897147760235,
        -773.6061663491455,
        1
      ],
      "name": "Spot Light",
      "extensions": {
        "KHR_lights_punctual": {
          "light": 1
        }
      }
    },
    {
      "matrix": [
        1,
        0,
        0,
        0,
        0,
        1,
        0,
        0,
        0,
        0,
        1,
        0,
        2.4558833460222615,
        -297.26432078863854,
        104,
        1
      ],
      "name": "Cube 8",
      "mesh": 0
    },
    {
      "matrix": [
        -0.7864458889074952,
        9.631184405531589e-17,
        0,
        0,
        -1.0756361100863719e-16,
        -0.878323538538027,
        0,
        0,
        0,
        0,
        0.7864458889074952,
        0,
        -23.843578873699546,
        -16.733067620676987,
        0,
        0.9999999999999998
      ],
      "name": "Cube 7",
      "mesh": 1
    },
    {
      "matrix": [
        -0.7864458889074952,
        9.631184405531589e-17,
        0,
        0,
        -1.0756361100863719e-16,
        -0.878323538538027,
        0,
        0,
        0,
        0,
        0.7864458889074952,
        0,
        23.843578873699542,
        -16.733067620676987,
        0,
        0.9999999999999998
      ],
      "name": "Cube 6",
      "mesh": 1
    },
    {
      "matrix": [
        0.7864458889074953,
        0,
        0,
        0,
        0,
        0.8783235385380272,
        0,
        0,
        0,
        0,
        0.7864458889074953,
        0,
        -23.843578873699546,
        16.733067620676934,
        0,
        1
      ],
      "name": "Cube 7",
      "mesh": 1
    },
    {
      "matrix": [
        0.7864458889074953,
        0,
        0,
        0,
        0,
        0.8783235385380272,
        0,
        0,
        0,
        0,
        0.7864458889074953,
        0,
        23.84357887369955,
        16.733067620676934,
        0,
        1
      ],
      "name": "Cube 4",
      "mesh": 1
    },
    {
      "matrix": [
        1,
        0,
        0,
        0,
        0,
        1,
        0,
        0,
        0,
        0,
        1,
        0,
        -2.494661892910294,
        -226.17045065127928,
        113,
        1
      ],
      "name": "legs",
      "children": [
        5,
        6,
        7,
        8
      ]
    },
    {
      "matrix": [
        1.072046015035428,
        0,
        0,
        0,
        0,
        0.9283667742683354,
        0,
        0,
        0,
        0,
        1.072046015035428,
        0,
        0,
        14.442491996280795,
        0.5360230075177128,
        1
      ],
      "name": "Cube 2",
      "mesh": 2
    },
    {
      "matrix": [
        1.0720460150354278,
        0,
        0,
        0,
        0,
        -0.43485620375821743,
        7.739389429286009e-17,
        0,
        0,
        -7.177726361768228e-17,
        -1.0720460150354278,
        0,
        0,
        -40.358188977908185,
        -0.5360230075176927,
        1
      ],
      "name": "Cube",
      "mesh": 3
    },
    {
      "matrix": [
        1,
        0,
        0,
        0,
        0,
        1,
        0,
        0,
        0,
        0,
        1,
        0,
        -4,
        -137.47189560310386,
        107.5,
        1
      ],
      "name": "body",
      "children": [
        10,
        11
      ]
    },
    {
      "matrix": [
        3.024288384239721e-16,
        2.2204460492503136e-16,
        1.0000000000000002,
        0,
        -0.6976883167947212,
        5.507543515711895e-17,
        1.1476858673327135e-16,
        0,
        3.363994285351628e-17,
        -1.0000000000000002,
        2.2204460492503136e-16,
        0,
        -8.390106643661809e-16,
        2.1670241878237095,
        20.13626382013795,
        1.0000000000000002
      ],
      "name": "Cylinder",
      "mesh": 4
    },
    {
      "matrix": [
        1,
        0,
        0,
        0,
        0,
        1,
        0,
        0,
        0,
        0,
        1,
        0,
        -0.21738543072873995,
        0,
        -10.409047315838166,
        1
      ],
      "name": "Boolean 2",
      "mesh": 5
    },
    {
      "matrix": [
        1,
        0,
        0,
        0,
        0,
        1,
        0,
        0,
        0,
        0,
        1,
        0,
        45.78261456927126,
        20.866282380178745,
        91.0150544857893,
        1
      ],
      "name": "Sphere 3",
      "mesh": 6
    },
    {
      "matrix": [
        1,
        0,
        0,
        0,
        0,
        1,
        0,
        0,
        0,
        0,
        1,
        0,
        -46.21738543072874,
        19.866282380178745,
        91.0150544857893,
        1
      ],
      "name": "Sphere",
      "mesh": 6
    },
    {
      "matrix": [
        1,
        0,
        0,
        0,
        0,
        1,
        0,
        0,
        0,
        0,
        1,
        0,
        -0.21738543072873995,
        0,
        -8.86373617986203,
        1
      ],
      "name": "Boolean",
      "mesh": 7
    },
    {
      "matrix": [
        1,
        0,
        0,
        0,
        0,
        1,
        0,
        0,
        0,
        0,
        1,
        0,
        0.21738543072873995,
        0,
        108.86373617986203,
        1
      ],
      "name": "Head",
      "children": [
        13,
        14,
        15,
        16,
        17
      ]
    },
    {
      "matrix": [
        0.8089138657575572,
        -1.3877787807814457e-17,
        0.5879271704770626,
        0,
        0.21730388762512537,
        0.9291868968585433,
        -0.29898282748244565,
        0,
        -0.5462942231144055,
        0.3696102145590554,
        0.7516321647491128,
        0,
        -2548.01763857525,
        1524.2927130978924,
        3286.824929269257,
        1
      ],
      "name": "Personal Camera",
      "camera": 1
    },
    {
      "matrix": [
        1,
        0,
        0,
        0,
        0,
        1,
        0,
        0,
        0,
        0,
        1,
        0,
        0,
        1,
        0,
        1
      ],
      "name": "Default Ambient Light"
    },
    {
      "name": "Scene 1",
      "children": [
        1,
        2,
        3,
        4,
        9,
        12,
        18,
        19,
        20
      ]
    }
  ],
  "cameras": [
    {
      "type": "orthographic",
      "orthographic": {
        "xmag": 14.212744751782733,
        "ymag": 6.967576040424738,
        "zfar": 100000,
        "znear": 0
      },
      "name": "Camera"
    },
    {
      "type": "orthographic",
      "orthographic": {
        "xmag": 15.748193630784195,
        "ymag": 7.72030586196647,
        "zfar": 100000,
        "znear": 0
      },
      "name": "Camera"
    }
  ],
  "extensions": {
    "KHR_lights_punctual": {
      "lights": [
        {
          "name": "Spot Light 2",
          "color": [
            0.9839806417817052,
            0.015284902950347847,
            0.015284902950347847
          ],
          "intensity": 1,
          "type": "spot",
          "range": 2000,
          "spot": {
            "innerConeAngle": 0.31415926535897926,
            "outerConeAngle": 0.5235987755982988
          }
        },
        {
          "name": "Spot Light",
          "color": [
            0.6266989106113471,
            0.5305645888877928,
            0.5305645888877928
          ],
          "intensity": 1,
          "type": "spot",
          "range": 2000,
          "spot": {
            "innerConeAngle": 0.31415926535897926,
            "outerConeAngle": 0.5235987755982988
          }
        }
      ]
    }
  },
  "bufferViews": [
    {
      "buffer": 0,
      "byteOffset": 0,
      "byteLength": 7200,
      "target": 34962,
      "byteStride": 12
    },
    {
      "buffer": 0,
      "byteOffset": 7200,
      "byteLength": 7200,
      "target": 34962,
      "byteStride": 12
    },
    {
      "buffer": 0,
      "byteOffset": 14400,
      "byteLength": 4800,
      "target": 34962,
      "byteStride": 8
    },
    {
      "buffer": 0,
      "byteOffset": 19200,
      "byteLength": 4296,
      "target": 34963
    },
    {
      "buffer": 0,
      "byteOffset": 23496,
      "byteLength": 55296,
      "target": 34962,
      "byteStride": 12
    },
    {
      "buffer": 0,
      "byteOffset": 78792,
      "byteLength": 55296,
      "target": 34962,
      "byteStride": 12
    },
    {
      "buffer": 0,
      "byteOffset": 134088,
      "byteLength": 27648,
      "target": 34963
    },
    {
      "buffer": 0,
      "byteOffset": 161736,
      "byteLength": 55296,
      "target": 34962,
      "byteStride": 12
    },
    {
      "buffer": 0,
      "byteOffset": 217032,
      "byteLength": 55296,
      "target": 34962,
      "byteStride": 12
    },
    {
      "buffer": 0,
      "byteOffset": 272328,
      "byteLength": 27648,
      "target": 34963
    },
    {
      "buffer": 0,
      "byteOffset": 299976,
      "byteLength": 43008,
      "target": 34962,
      "byteStride": 12
    },
    {
      "buffer": 0,
      "byteOffset": 342984,
      "byteLength": 43008,
      "target": 34962,
      "byteStride": 12
    },
    {
      "buffer": 0,
      "byteOffset": 385992,
      "byteLength": 21504,
      "target": 34963
    },
    {
      "buffer": 0,
      "byteOffset": 407496,
      "byteLength": 6240,
      "target": 34962,
      "byteStride": 12
    },
    {
      "buffer": 0,
      "byteOffset": 413736,
      "byteLength": 6240,
      "target": 34962,
      "byteStride": 12
    },
    {
      "buffer": 0,
      "byteOffset": 419976,
      "byteLength": 4160,
      "target": 34962,
      "byteStride": 8
    },
    {
      "buffer": 0,
      "byteOffset": 424136,
      "byteLength": 6144,
      "target": 34963
    },
    {
      "buffer": 0,
      "byteOffset": 430280,
      "byteLength": 397008,
      "target": 34962,
      "byteStride": 12
    },
    {
      "buffer": 0,
      "byteOffset": 827288,
      "byteLength": 397008,
      "target": 34962,
      "byteStride": 12
    },
    {
      "buffer": 0,
      "byteOffset": 1224296,
      "byteLength": 50700,
      "target": 34962,
      "byteStride": 12
    },
    {
      "buffer": 0,
      "byteOffset": 1274996,
      "byteLength": 50700,
      "target": 34962,
      "byteStride": 12
    },
    {
      "buffer": 0,
      "byteOffset": 1325696,
      "byteLength": 33800,
      "target": 34962,
      "byteStride": 8
    },
    {
      "buffer": 0,
      "byteOffset": 1359496,
      "byteLength": 48384,
      "target": 34963
    },
    {
      "buffer": 0,
      "byteOffset": 1407880,
      "byteLength": 123552,
      "target": 34962,
      "byteStride": 12
    },
    {
      "buffer": 0,
      "byteOffset": 1531432,
      "byteLength": 123552,
      "target": 34962,
      "byteStride": 12
    }
  ],
  "buffers": [
    {
      "byteLength": 1654984,
      "uri": "data:application/octet-stream;base64,"
    }
  ],
  "accessors": [
    {
      "bufferView": 0,
      "componentType": 5126,
      "count": 600,
      "max": [
        135.77003479003906,
        34.6070442199707,
        96.5331802368164
      ],
      "min": [
        -135.77003479003906,
        -34.6070442199707,
        -96.5331802368164
      ],
      "type": "VEC3"
    },
    {
      "bufferView": 1,
      "componentType": 5126,
      "count": 600,
      "max": [
        1,
        1,
        1
      ],
      "min": [
        -1,
        -1,
        -1
      ],
      "type": "VEC3"
    },
    {
      "bufferView": 2,
      "componentType": 5126,
      "count": 600,
      "max": [
        1,
        1
      ],
      "min": [
        0,
        0
      ],
      "type": "VEC2"
    },
    {
      "bufferView": 3,
      "componentType": 5123,
      "count": 2148,
      "max": [
        599
      ],
      "min": [
        0
      ],
      "type": "SCALAR"
    },
    {
      "bufferView": 4,
      "componentType": 5126,
      "count": 4608,
      "max": [
        20.302152633666992,
        23.14719581604004,
        20.302152633666992
      ],
      "min": [
        -20.302152633666992,
        -21.62276840209961,
        -20.302152633666992
      ],
      "type": "VEC3"
    },
    {
      "bufferView": 5,
      "componentType": 5126,
      "count": 4608,
      "max": [
        0.9988205432891846,
        1,
        0.9988205432891846
      ],
      "min": [
        -0.9988205432891846,
        -1,
        -0.9988205432891846
      ],
      "type": "VEC3"
    },
    {
      "bufferView": 6,
      "componentType": 5125,
      "count": 6912,
      "max": [
        4607
      ],
      "min": [
        0
      ],
      "type": "SCALAR"
    },
    {
      "bufferView": 7,
      "componentType": 5126,
      "count": 4608,
      "max": [
        45.473175048828125,
        51.845550537109375,
        45.473175048828125
      ],
      "min": [
        -45.473175048828125,
        -48.431114196777344,
        -45.473175048828125
      ],
      "type": "VEC3"
    },
    {
      "bufferView": 8,
      "componentType": 5126,
      "count": 4608,
      "max": [
        0.9988205432891846,
        1,
        0.9988205432891846
      ],
      "min": [
        -0.9988205432891846,
        -1,
        -0.9988205432891846
      ],
      "type": "VEC3"
    },
    {
      "bufferView": 9,
      "componentType": 5125,
      "count": 6912,
      "max": [
        4607
      ],
      "min": [
        0
      ],
      "type": "SCALAR"
    },
    {
      "bufferView": 10,
      "componentType": 5126,
      "count": 3584,
      "max": [
        44.463829040527344,
        51.84800338745117,
        44.46382141113281
      ],
      "min": [
        -44.463829040527344,
        -48.43341064453125,
        -44.463829040527344
      ],
      "type": "VEC3"
    },
    {
      "bufferView": 11,
      "componentType": 5126,
      "count": 3584,
      "max": [
        0.9970457553863525,
        1,
        0.9968773126602173
      ],
      "min": [
        -0.9970457553863525,
        -1,
        -0.9968773126602173
      ],
      "type": "VEC3"
    },
    {
      "bufferView": 12,
      "componentType": 5125,
      "count": 5376,
      "max": [
        3583
      ],
      "min": [
        0
      ],
      "type": "SCALAR"
    },
    {
      "bufferView": 13,
      "componentType": 5126,
      "count": 520,
      "max": [
        28,
        170.50814819335938,
        30
      ],
      "min": [
        -28,
        -170.50814819335938,
        -30
      ],
      "type": "VEC3"
    },
    {
      "bufferView": 14,
      "componentType": 5126,
      "count": 520,
      "max": [
        1,
        1,
        1
      ],
      "min": [
        -1,
        -1,
        -1
      ],
      "type": "VEC3"
    },
    {
      "bufferView": 15,
      "componentType": 5126,
      "count": 520,
      "max": [
        1,
        1
      ],
      "min": [
        0,
        0
      ],
      "type": "VEC2"
    },
    {
      "bufferView": 16,
      "componentType": 5123,
      "count": 3072,
      "max": [
        519
      ],
      "min": [
        0
      ],
      "type": "SCALAR"
    },
    {
      "bufferView": 17,
      "componentType": 5126,
      "count": 33084,
      "max": [
        102.82861328125,
        69.46643829345703,
        106.51850128173828
      ],
      "min": [
        -102.82861328125,
        -69.46643829345703,
        -106.51849365234375
      ],
      "type": "VEC3"
    },
    {
      "bufferView": 18,
      "componentType": 5126,
      "count": 33084,
      "max": [
        1,
        1,
        1
      ],
      "min": [
        -1,
        -1,
        -1
      ],
      "type": "VEC3"
    },
    {
      "bufferView": 19,
      "componentType": 5126,
      "count": 4225,
      "max": [
        21.322641372680664,
        21.322641372680664,
        21.322641372680664
      ],
      "min": [
        -21.322641372680664,
        -21.322641372680664,
        -21.322641372680664
      ],
      "type": "VEC3"
    },
    {
      "bufferView": 20,
      "componentType": 5126,
      "count": 4225,
      "max": [
        1,
        1,
        1
      ],
      "min": [
        -1,
        -1,
        -1
      ],
      "type": "VEC3"
    },
    {
      "bufferView": 21,
      "componentType": 5126,
      "count": 4225,
      "max": [
        1.0078125,
        1
      ],
      "min": [
        -0.0078125,
        0
      ],
      "type": "VEC2"
    },
    {
      "bufferView": 22,
      "componentType": 5123,
      "count": 24192,
      "max": [
        4224
      ],
      "min": [
        0
      ],
      "type": "SCALAR"
    },
    {
      "bufferView": 23,
      "componentType": 5126,
      "count": 10296,
      "max": [
        112.5,
        76,
        100
      ],
      "min": [
        -112.5,
        -76,
        -100
      ],
      "type": "VEC3"
    },
    {
      "bufferView": 24,
      "componentType": 5126,
      "count": 10296,
      "max": [
        1,
        1,
        1
      ],
      "min": [
        -1,
        -1,
        -1
      ],
      "type": "VEC3"
    }
  ],
  "meshes": [
    {
      "primitives": [
        {
          "mode": 4,
          "attributes": {
            "POSITION": 0,
            "NORMAL": 1,
            "TEXCOORD_0": 2
          },
          "extras": {
            "parameters": {
              "width": 271.54006455590144,
              "widthSegments": 1,
              "heightSegments": 1,
              "depthSegments": 1,
              "cornerRadius": 8,
              "cornerSegments": 8,
              "height": 69.21408652702644,
              "depth": 193.066361117491,
              "type": "CubeGeometry"
            },
            "type": "CubeGeometry"
          },
          "indices": 3
        }
      ]
    },
    {
      "primitives": [
        {
          "mode": 4,
          "attributes": {
            "POSITION": 4,
            "NORMAL": 5
          },
          "extras": {
            "type": "SubdivGeometry",
            "parameters": {
              "width": 44.64644588043396,
              "height": 45.7693684406431,
              "depth": 44.64644588043396
            }
          },
          "indices": 6
        }
      ]
    },
    {
      "primitives": [
        {
          "mode": 4,
          "attributes": {
            "POSITION": 7,
            "NORMAL": 8
          },
          "extras": {
            "type": "SubdivGeometry",
            "parameters": {
              "width": 100,
              "height": 102.51514434814453,
              "depth": 100
            }
          },
          "indices": 9
        }
      ]
    },
    {
      "primitives": [
        {
          "mode": 4,
          "attributes": {
            "POSITION": 10,
            "NORMAL": 11
          },
          "extras": {
            "type": "SubdivGeometry",
            "parameters": {
              "width": 100,
              "height": 102.52,
              "depth": 100
            }
          },
          "indices": 12
        }
      ]
    },
    {
      "primitives": [
        {
          "mode": 4,
          "attributes": {
            "POSITION": 13,
            "NORMAL": 14,
            "TEXCOORD_0": 15
          },
          "extras": {
            "parameters": {
              "width": 56,
              "radialSegments": 64,
              "heightSegments": 1,
              "openEnded": false,
              "thetaStart": 0,
              "thetaLength": 360,
              "cornerRadius": 8,
              "cornerSegments": 8,
              "hollow": 1,
              "depth": 60,
              "height": 341.0163037764047,
              "radiusTop": 28,
              "radiusBottom": 28,
              "type": "CylinderGeometry"
            },
            "type": "CylinderGeometry"
          },
          "indices": 16
        }
      ]
    },
    {
      "primitives": [
        {
          "mode": 4,
          "attributes": {
            "POSITION": 17,
            "NORMAL": 18
          },
          "extras": {
            "parameters": {
              "width": 205.6572265625,
              "height": 138.93287658691406,
              "depth": 213.0369873046875
            }
          }
        }
      ]
    },
    {
      "primitives": [
        {
          "mode": 4,
          "attributes": {
            "POSITION": 19,
            "NORMAL": 20,
            "TEXCOORD_0": 21
          },
          "extras": {
            "parameters": {
              "width": 42.64528192314128,
              "widthSegments": 64,
              "heightSegments": 64,
              "phiStart": 0,
              "phiLength": 6.283185307179586,
              "thetaStart": 0,
              "thetaLength": 180,
              "height": 42.64528192314128,
              "depth": 42.64528192314128,
              "type": "SphereGeometry"
            },
            "type": "SphereGeometry",
            "booleanOperationDidFail": false
          },
          "indices": 22
        }
      ]
    },
    {
      "primitives": [
        {
          "mode": 4,
          "attributes": {
            "POSITION": 23,
            "NORMAL": 24
          },
          "extras": {
            "parameters": {
              "width": 225,
              "height": 152,
              "depth": 200
            }
          }
        }
      ]
    }
  ],
  "extensionsUsed": [
    "KHR_lights_punctual"
  ]
}